<?xml version="1.0" encoding="iso-8859-1"?>
<!-- Generator: Adobe Illustrator 19.0.0, SVG Export Plug-In . SVG Version: 6.00 Build 0)  -->
<svg version="1.1" id="Capa_1" xmlns="http://www.w3.org/2000/svg" xmlns:xlink="http://www.w3.org/1999/xlink" x="0px" y="0px"
	 viewBox="0 0 511.999 511.999" style="enable-background:new 0 0 511.999 511.999;" xml:space="preserve">
<g>
	<g>
		<path d="M498.811,140.564L371.556,13.31c-17.542-17.542-46.085-17.54-63.623-0.004L22.001,299.017
			c-29.324,29.304-29.337,76.748-0.021,106.066l84.838,84.837c29.228,29.228,76.788,29.234,106.025,0.021
			c0,0,281.66-281.443,285.968-285.748C516.394,186.608,516.397,158.15,498.811,140.564z M191.641,468.723
			c-17.542,17.529-46.079,17.523-63.615-0.012l-84.838-84.837c-17.588-17.59-17.584-46.057,0.013-63.64l63.964-63.914
			l148.464,148.465L191.641,468.723z M276.846,383.583L128.382,235.119L276.095,87.522l148.464,148.464L276.846,383.583z
			 M477.606,182.978l-31.83,31.806L297.312,66.321l31.827-31.802c5.85-5.849,15.363-5.845,21.209,0l127.255,127.255
			C483.47,167.642,483.455,177.128,477.606,182.978z"/>
	</g>
</g>
<g>
</g>
<g>
</g>
<g>
</g>
<g>
</g>
<g>
</g>
<g>
</g>
<g>
</g>
<g>
</g>
<g>
</g>
<g>
</g>
<g>
</g>
<g>
</g>
<g>
</g>
<g>
</g>
<g>
</g>
</svg>
